<svg height="512" viewBox="0 0 48 60" width="512" xmlns="http://www.w3.org/2000/svg"><g id="Page-1" fill="none" fill-rule="evenodd"><g id="045---Boy-with-Goggles" fill-rule="nonzero" transform="translate(0 -1)"><path id="Shape" d="m42 27v6c-.0011972.668145-.0379157 1.3357538-.11 2-1.0124752 9.1161546-8.7177931 16.0130677-17.89 16.0130677s-16.87752476-6.8969131-17.89-16.0130677c-.07208429-.6642462-.10880278-1.331855-.11-2v-6c1.07451974-1.0836912 2.07352587-2.2397318 2.99-3.46.98272563.256056 1.9944706.3837846 3.01.38 2.5345335.0634375 5.0077049-.7846084 6.97-2.39 2.9792526-.1710901 5.9304863-.6707876 8.8-1.49 1.39 2.29 4.55 3.88 8.23 3.88 1.0155294.0037846 2.0272744-.123944 3.01-.38.9164741 1.2202682 1.9154803 2.3763088 2.99 3.46z" fill="#ffe0b2"/><path id="Shape" d="m39.01 23.54c-.886162.2254862-1.7957026.3463107-2.71.36.833708 1.0892523 1.73551 2.1246546 2.7 3.1v6c-.0011972.668145-.0379157 1.3357538-.11 2-.9474057 8.5481108-7.8184331 15.2267159-16.39 15.931.5.042.993.069 1.5.069 9.1661754-.0033552 16.8674648-6.8910371 17.89-16 .0720843-.6642462.1088028-1.331855.11-2v-6c-1.0745197-1.0836912-2.0735259-2.2397318-2.99-3.46z" fill="#dfc49c"/><path id="Shape" d="m29 50.29v2.71c0 1.6568542-1.3431458 3-3 3h-4c-1.6548028-.0049422-2.9950578-1.3451972-3-3v-2.71c3.2661229.9466466 6.7338771.9466466 10 0z" fill="#ffe0b2"/><path id="Shape" d="m40 60h-32c0-3.8659932 3.1340068-7 7-7h4c.0049422 1.6548028 1.3451972 2.9950578 3 3h4c1.6568542 0 3-1.3431458 3-3h4c3.8659932 0 7 3.1340068 7 7z" fill="#ffdc00"/><path id="Shape" d="m37.95 55.05c-1.3102237-1.3166613-3.0925123-2.0547808-4.95-2.05l-3-.0000231c3.8659932.0000231 7 3.1340299 7 7.0000231h3.0000231c.0047577-1.8574877-.7333618-3.6397763-2.0500231-4.95z" fill="#fec108"/><path id="Shape" d="m6.11 35h-1.61c-1.93299662 0-3.5-1.5670034-3.5-3.5.00930245-1.9291303 1.57086971-3.4906976 3.5-3.5h1.5v5c.00119722.668145.03791571 1.3357538.11 2z" fill="#ffe0b2"/><path id="Shape" d="m47 31.5c0 1.9329966-1.5670034 3.5-3.5 3.5h-1.61c.0720843-.6642462.1088028-1.331855.11-2v-5h1.5c1.9291303.0093024 3.4906976 1.5708697 3.5 3.5z" fill="#ffe0b2"/><path id="Shape" d="m8.99 23.54c-.91647413 1.2202682-1.91548026 2.3763088-2.99 3.46-1.09708446-2.1677647-1.83982774-4.4972778-2.2-6.9 1.2337536 1.7606825 3.08779636 2.9895663 5.19 3.44z" fill="#a0522d"/><path id="Shape" d="m44.35 14.99c-1.33-2.39-4.57-4.07-8.35-4.07-4.97 0-9 2.91-9 6.5.0038096.9285664.2707995 1.8370255.77 2.62-2.8695137.8192124-5.8207474 1.3189099-8.8 1.49 1.2425431-1.0092954 1.9836981-2.5098604 2.03-4.11 0-3.59-4.03-6.5-9-6.5-3.78 0-7.02 1.68-8.35 4.07.31400563-3.528698 1.46222662-6.93223068 3.35-9.93 0 0 4 0 5 2.98 0 0 4-2.98 2-5.96 0 0 13-.99 17 3.98 3.0894316-.0930131 5.9848894-1.52796258 7.93-3.93l2.07 2.93c1.8877734 2.99776932 3.0359944 6.401302 3.35 9.93z" fill="#a0522d"/><path id="Shape" d="m41 5.06-2.07-2.93c-.5219024.64494281-1.1191538 1.22507226-1.779 1.728l.849 1.202c1.3453818 2.11674194 2.3118221 4.45162932 2.856 6.9 1.4524812.6203868 2.674291 1.6799413 3.494 3.03-.3140056-3.528698-1.4622266-6.93223068-3.35-9.93z" fill="#783e22"/><path id="Shape" d="m44.2 20.1c-.3601723 2.4027222-1.1029155 4.7322353-2.2 6.9-1.0745197-1.0836912-2.0735259-2.2397318-2.99-3.46 2.1022036-.4504337 3.9562464-1.6793175 5.19-3.44z" fill="#a0522d"/><path id="Shape" d="m21 17.42c-.0463019 1.6001396-.7874569 3.1007046-2.03 4.11-1.9622951 1.6053916-4.4354665 2.4534375-6.97 2.39-1.0155294.0037846-2.02727437-.123944-3.01-.38-2.10220364-.4504337-3.9562464-1.6793175-5.19-3.44v-.01c-1.00986247-1.5350231-1.06789938-3.508278-.15-5.1 1.33-2.39 4.57-4.07 8.35-4.07 4.97 0 9 2.91 9 6.5z" fill="#02a9f4"/><path id="Shape" d="m12 10.92c-.5038997.0026497-1.0071683.0360451-1.507.1 4.258.511 7.507 3.18 7.507 6.4-.0463019 1.6001396-.7874569 3.1007046-2.03 4.11-1.564126 1.3001869-3.4833633 2.0995206-5.508 2.294.5100859.0653088 1.0237518.0987071 1.538.1 2.5345335.0634375 5.0077049-.7846084 6.97-2.39 1.243585-1.0101983 1.9848511-2.5124489 2.03-4.114 0-3.59-4.03-6.5-9-6.5z" fill="#0377bc"/><path id="Shape" d="m45 17.42c-.0032639.948576-.2811186 1.8759161-.8 2.67v.01c-1.2337536 1.7606825-3.0877964 2.9895663-5.19 3.44-.9827256.256056-1.9944706.3837846-3.01.38-3.68 0-6.84-1.59-8.23-3.88-.4992005-.7829745-.7661904-1.6914336-.77-2.62 0-3.59 4.03-6.5 9-6.5 3.78 0 7.02 1.68 8.35 4.07.4227588.7403259.646688 1.5774764.65 2.43z" fill="#02a9f4"/><path id="Shape" d="m44.35 14.99c-1.33-2.39-4.57-4.07-8.35-4.07-.4992286.0031749-.9978072.0365693-1.493.1 3.117.379 5.694 1.908 6.843 3.973.9178994 1.591722.8598625 3.5649769-.15 5.1v.01c-1.2337536 1.7606825-3.0877964 2.9895663-5.19 3.44-.4909961.128847-.9901311.2243976-1.494.286.4924052.0599455.9879598.0903333 1.484.091 1.0155294.0037846 2.0272744-.123944 3.01-.38 2.1022036-.4504337 3.9562464-1.6793175 5.19-3.44v-.01c1.0098625-1.5350231 1.0678994-3.508278.15-5.1z" fill="#0377bc"/><path id="Shape" d="m8 17.918c-.4043959-.0000863-.76893405-.2437275-.92367798-.6173454-.15474393-.373618-.06922994-.8036603.21667798-1.0896546l1-1c.25107447-.2599566.62287789-.3642126.97250732-.2726972.34962944.0915155.6226744.3645604.71418984.7141899.09151544.3496294-.01274058.7214328-.27269716.9725073l-1 1c-.18749273.1875494-.44180519.2929434-.707.293z" fill="#f5f5f5"/><path id="Shape" d="m10 20.918c-.4043959-.0000863-.76893405-.2437275-.92367798-.6173454-.15474393-.373618-.06922994-.8036603.21667798-1.0896546l4-4c.2510745-.2599566.6228779-.3642126.9725073-.2726972.3496295.0915155.6226744.3645604.7141899.7141899.0915154.3496294-.0127406.7214328-.2726972.9725073l-4 4c-.1874927.1875494-.4418052.2929434-.707.293z" fill="#f5f5f5"/><path id="Shape" d="m32 17.918c-.4043959-.0000863-.7689341-.2437275-.923678-.6173454-.1547439-.373618-.0692299-.8036603.216678-1.0896546l1-1c.2510745-.2599566.6228779-.3642126.9725073-.2726972.3496295.0915155.6226744.3645604.7141899.7141899.0915154.3496294-.0127406.7214328-.2726972.9725073l-1 1c-.1874927.1875494-.4418052.2929434-.707.293z" fill="#f5f5f5"/><path id="Shape" d="m34 20.918c-.4043959-.0000863-.7689341-.2437275-.923678-.6173454-.1547439-.373618-.0692299-.8036603.216678-1.0896546l4-4c.2510745-.2599566.6228779-.3642126.9725073-.2726972.3496295.0915155.6226744.3645604.7141899.7141899.0915154.3496294-.0127406.7214328-.2726972.9725073l-4 4c-.1874927.1875494-.4418052.2929434-.707.293z" fill="#f5f5f5"/><path id="Shape" d="m27.83 45.86c-2.3268313 1.5209671-5.3331687 1.5209671-7.66 0 .5018671-1.6968802 2.0604596-2.8612441 3.83-2.8612441s3.3281329 1.1643639 3.83 2.8612441z" fill="#e91e63"/><path id="Shape" d="m31.0000011 39-.0000011 1c.0013421 2.3634783-1.1910754 4.5677581-3.17 5.86-.5018671-1.6968802-2.0604596-2.8612441-3.83-2.8612441s-3.3281329 1.1643639-3.83 2.8612441c-1.9789246-1.2922419-3.1713421-3.4965217-3.17-5.86l-.0000011-1z" fill="#ad1457"/><circle id="Oval" cx="15" cy="31.918" fill="#3f51b5" r="2"/><circle id="Oval" cx="33" cy="31.918" fill="#3f51b5" r="2"/><g fill="#000"><path id="Shape" d="m1.328 28.317c-.85398193.8383732-1.33290895 1.9862834-1.328 3.183.00275556 2.4841391 2.01586091 4.4972444 4.5 4.5h.761c1.12639247 6.9830775 6.0325781 12.7654366 12.739 15.014v.986h-3c-4.4162219.0049599-7.99504012 3.5837781-8 8 0 .5522847.44771525 1 1 1h32c.5522847 0 1-.4477153 1-1 0-4.418278-3.581722-8-8-8h-3v-.986c6.7064219-2.2485634 11.6126075-8.0309225 12.739-15.014h.761c2.4841391-.0027556 4.4972444-2.0158609 4.5-4.5-.0093215-2.48141-2.01859-4.4906785-4.5-4.5h-.4c1.0002228-2.0795277 1.6931214-4.2933 2.057-6.572.5459126-.909551.8370871-1.9492132.843-3.01-.006547-.9356026-.2373315-1.8559975-.673-2.684-.3452736-3.6458158-1.5483875-7.15818194-3.511-10.25l-2.069-2.93c-.1841791-.26011722-.4813207-.41685939-.8-.422-.3191933-.00111599-.6206143.1468207-.815.4-1.6682501 2.01931901-4.076721 3.28515313-6.686 3.514-4.585-4.887-16.983-4-17.52-3.96-.355034.0266906-.6691012.24013558-.8246071.56041586-.1555058.32028029-.1289947.69908646.0696071.99458414.945 1.407-.048 2.9-.884 3.8-1.711-2.348-5.12-2.379-5.287-2.379-.32541277-.00017904-.63056227.15799136-.818.424-1.9616791 3.09137532-3.16409767 6.6030269-3.509 10.248-.95528887 1.7930753-.88984954 3.9578997.172 5.69.36195365 2.2801799 1.05422604 4.4954515 2.055 6.576h-.4c-1.19154845-.0060886-2.33517347.4687393-3.172 1.317zm3.172 5.683c-1.38071187 0-2.5-1.1192881-2.5-2.5.00872977-1.3770797 1.12292032-2.4912702 2.5-2.5h.5v4c0 .338.033.667.051 1zm17.453-15.885c1.3536708-.2449958 2.7403292-.2449958 4.094 0 .0554515.4292777.1591056.8509386.309 1.257-1.6890683.4336086-3.405707.7516779-5.138.952.3868732-.6812839.6365728-1.4317415.735-2.209zm19.758 7.126c-.347-.382-.69-.785-1.03-1.2.6276266-.2489105 1.2303093-.5566135 1.8-.919-.2209175.7188164-.4779099 1.4260462-.77 2.119zm2.289-7.823c-.0060031.7403867-.2156586 1.4648401-.606 2.094-.0254356.0347331-.0484884.0711499-.069.109-1.0953211 1.5097786-2.7120783 2.5592275-4.537 2.945l-.044.012c-.8971843.225852-1.818825.3400494-2.744.34-4.411 0-8-2.468-8-5.5s3.589-5.5 8-5.5 8 2.468 8 5.5zm-25.766 3.438-.016.015c-1.7728468 1.382243-3.970752 2.1058056-6.218 2.047-.9255752.0001943-1.8476053-.1143457-2.745-.341l-.043-.01c-1.81012279-.3853463-3.41573399-1.4219476-4.512-2.913-.02089221-.0347396-.04393722-.0681381-.069-.1-.40597315-.6389687-.6245863-1.3789967-.631-2.136 0-3.032 3.589-5.5 8-5.5s8 2.468 8 5.5c-.0504137 1.3509977-.6971895 2.6101229-1.766 3.438zm-10.915 3.185c-.34.415-.684.818-1.03 1.2-.29151728-.6939699-.54784298-1.4022032-.768-2.122.56857307.3639445 1.17064684.6726831 1.798.922zm29.924 31.716c.8841017.8788334 1.4696844 2.0132687 1.674 3.243h-29.834c.49183282-2.8850396 2.9903399-4.996335 5.917-5h3.142c.4545933 1.7606851 2.0395884 2.9931852 3.858 3h4c1.8184116-.0068148 3.4034067-1.2393149 3.858-3h3.142c1.5922272-.0045083 3.1200824.6281671 4.243 1.757zm-9.243-2.757c0 1.1045695-.8954305 2-2 2h-4c-1.1045695 0-2-.8954305-2-2v-1.432c2.6355643.5759848 5.3644357.5759848 8 0zm-4-3c-9.3845001-.010471-16.98952899-7.6154999-17-17v-5.611c.84090606-.8709607 1.63502164-1.7859127 2.379-2.741.8623484.178012 1.7404713.2684711 2.621.27 2.6476252.0476605 5.2330138-.8048513 7.333-2.418 2.7124599-.1777305 5.4009746-.6208481 8.027-1.323 2.1686558 2.4858913 5.3432661 3.8604535 8.64 3.741.8805287-.0015289 1.7586516-.091988 2.621-.27.7442323.9548784 1.5383365 1.8698173 2.379 2.741v5.611c-.010471 9.3845001-7.6154999 16.989529-17 17zm21.269-20.257c.4707467.4630488.7343744 1.096693.731 1.757 0 1.3807119-1.1192881 2.5-2.5 2.5h-.551c.018-.333.051-.662.051-1v-4h.5c.6659956-.0023237 1.3044036.2658148 1.769.743zm-37.744-23.643c.963.116 2.957.56 3.527 2.258.1018684.30408333.3433952.54086264.6494407.63667506.3060454.09581242.6394756.0390326.8965593-.15267506 1.374-1.025 3.4-3.36 2.875-5.837 4.175-.118 12.078.359 14.748 3.675.1892247.23696467.4757547.37526411.779.376 2.9445156-.04859918 5.7540956-1.24317294 7.832-3.33l1.349 1.909c1.2220189 1.94523512 2.1143609 4.07894967 2.641 6.315-2.0140467-1.3561723-4.3941427-2.06510742-6.822-2.032-4.918 0-9.008 2.678-9.837 6.191-1.4324261-.234994-2.8935739-.234994-4.326 0-.829-3.509-4.919-6.191-9.837-6.191-2.42985682-.03311636-4.8118365.6769069-6.827 2.035.49669201-2.05451852 1.28895036-4.02606958 2.352-5.853z"/><path id="Shape" d="m31 38h-14c-.5522847 0-1 .4477153-1 1v1c0 4.418278 3.581722 8 8 8s8-3.581722 8-8v-1c0-.5522847-.4477153-1-1-1zm-9.539 7.428c.5388555-.886783 1.5013346-1.4281714 2.539-1.4281714s2.0001445.5413884 2.539 1.4281714c-1.6067555.7626768-3.4712445.7626768-5.078 0zm6.722-1.135c-.9114023-1.4283591-2.4886376-2.2929262-4.183-2.2929262s-3.2715977.8645671-4.183 2.2929262c-1.1616529-1.1261573-1.8172297-2.6750793-1.8170001-4.293h12.0000002c.0002296 1.6179207-.6553472 3.1668427-1.8170001 4.293z"/><path id="Shape" d="m23 36h2c.5522847 0 1-.4477153 1-1s-.4477153-1-1-1h-2c-.5522847 0-1 .4477153-1 1s.4477153 1 1 1z"/><path id="Shape" d="m18 31.918c0-1.6568542-1.3431458-3-3-3s-3 1.3431458-3 3 1.3431458 3 3 3 3-1.3431458 3-3zm-3 1c-.5522847 0-1-.4477153-1-1s.4477153-1 1-1 1 .4477153 1 1-.4477153 1-1 1z"/><path id="Shape" d="m33 28.918c-1.6568542 0-3 1.3431458-3 3s1.3431458 3 3 3 3-1.3431458 3-3-1.3431458-3-3-3zm0 4c-.5522847 0-1-.4477153-1-1s.4477153-1 1-1 1 .4477153 1 1-.4477153 1-1 1z"/><path id="Shape" d="m13 27.918h3c.5522847 0 1-.4477153 1-1s-.4477153-1-1-1h-3c-.5522847 0-1 .4477153-1 1s.4477153 1 1 1z"/><path id="Shape" d="m35 25.918h-3c-.5522847 0-1 .4477153-1 1s.4477153 1 1 1h3c.5522847 0 1-.4477153 1-1s-.4477153-1-1-1z"/></g></g></g></svg>